<svg width="358" height="286" viewBox="0 0 358 286" fill="none" xmlns="http://www.w3.org/2000/svg">
<path d="M17.2779 205.757C24.3053 205.757 28.9609 201.294 28.9609 195.256C28.9609 192.019 27.819 189.306 25.6229 187.118C23.6904 185.193 22.3728 183.881 17.0144 180.118C9.45992 174.868 7.79092 173.467 5.41917 170.405C3.22311 167.605 2.34469 165.067 2.34469 160.954C2.34469 152.203 9.72345 145.641 19.9132 145.641C25.4472 145.641 29.8394 146.866 34.3193 149.228C34.4072 151.591 34.495 153.254 34.495 155.266C34.495 157.279 34.4072 159.116 34.3193 161.479L31.8597 161.654C31.0692 158.591 30.1907 156.054 28.1704 153.691C25.7986 150.978 23.4269 149.666 19.2104 149.666C12.9736 149.666 8.75718 153.516 8.75718 159.466C8.75718 162.179 9.37208 164.367 11.8317 166.904C13.5007 168.567 14.6426 169.53 20.2645 173.467C27.2041 178.28 29.3123 179.768 31.7719 182.568C34.2315 185.456 35.9005 189.656 35.9005 193.594C35.9005 203.394 28.1704 209.695 16.663 209.695C10.6897 209.695 6.47328 208.82 2.25685 206.807C1.29058 201.994 1.02705 197.619 0.5 192.631L3.22311 192.019C4.18938 194.819 4.97996 197.094 6.2976 199.282C8.84503 203.744 11.3925 205.757 17.2779 205.757Z" fill="#E8E4DF"/>
<path d="M48.7543 147.041H80.4654C84.0669 147.041 86.9657 147.041 90.3916 146.778C90.5673 150.978 90.6551 155.266 90.6551 159.554L88.1077 159.729C87.1414 156.491 86.263 154.654 84.9454 153.254C83.6277 151.853 81.6073 151.153 79.9383 150.891C77.7423 150.541 75.8097 150.453 72.9988 150.453C68.8702 150.453 68.3431 151.153 68.0796 154.654C67.8161 157.366 67.8161 160.517 67.8161 163.667V189.218C67.8161 192.281 67.9918 196.131 68.0796 199.019C68.2553 203.482 69.2216 204.882 73.438 206.02L73.1745 208.382C69.7486 208.12 66.5863 208.12 64.3902 208.12C62.1942 208.12 58.8562 208.12 55.4303 208.382L55.1668 206.02C59.3832 204.882 60.3495 203.482 60.5252 199.019C60.613 196.131 60.7887 192.281 60.7887 189.218V163.667C60.7887 160.517 60.7887 157.366 60.5252 154.654C60.2617 151.153 59.7346 150.453 55.606 150.453C52.795 150.453 50.9504 150.541 48.7543 150.891C47.0853 151.153 45.0649 151.853 43.7473 153.254C42.4296 154.654 41.4634 156.491 40.4971 159.729L37.9497 159.554C38.2132 155.266 38.4767 151.066 38.8281 146.778C42.254 147.041 45.1528 147.041 48.7543 147.041Z" fill="#E8E4DF"/>
<path d="M111.781 145.466H113.45L129.701 189.218C130.755 192.019 132.336 196.131 133.654 199.019C135.323 202.869 136.816 204.707 139.715 206.195L139.452 208.382C136.026 208.12 134.445 208.12 132.248 208.12C130.052 208.12 126.802 208.12 123.376 208.382L123.113 206.195C125.485 205.145 126.451 204.357 126.451 202.694C126.451 200.682 125.133 197.269 122.234 189.218L121.532 187.468H100.098L99.4833 189.218C96.4088 197.269 95.8817 200.594 95.8817 202.607C95.8817 204.269 96.6723 205.232 99.2197 206.195L98.9562 208.382C95.5304 208.12 93.7735 208.12 91.5775 208.12C89.3814 208.12 88.1516 208.12 85.0771 208.382L84.8136 206.195C87.7124 204.707 89.2057 202.869 90.8747 199.019C92.1924 196.131 93.7735 192.019 94.8276 189.218L111.781 145.466ZM111.166 158.941L101.591 183.706H120.214L111.166 158.941Z" fill="#E8E4DF"/>
<path d="M200.845 154.566L177.391 209.695H175.547L152.005 156.491L150.863 189.306C150.775 191.319 150.687 193.856 150.687 196.219C150.687 200.769 150.863 204.882 155.606 206.282L155.343 208.47C152.62 208.295 150.248 208.207 148.14 208.207C146.032 208.207 143.923 208.207 141.2 208.47L140.937 206.282C144.538 204.795 145.329 203.219 145.68 199.107C145.944 196.219 145.944 192.369 146.119 189.306L147.173 165.942C147.261 163.929 147.261 162.617 147.261 160.954C147.261 156.054 147.173 150.628 141.815 148.966L142.079 146.778C146.998 147.041 150.599 147.041 155.782 147.041L177.918 197.794L198.737 147.041C203.568 147.041 209.014 147.041 212.44 146.778L212.704 148.966C209.102 150.366 208.4 152.203 208.136 156.141C208.048 158.241 207.96 160.954 207.96 163.404C207.96 164.367 208.136 165.154 208.575 189.306C208.663 192.369 208.663 196.219 208.927 199.107C208.927 203.219 209.893 204.795 213.494 206.282L213.231 208.47C209.805 208.207 207.609 208.207 205.413 208.207C203.217 208.207 200.845 208.207 197.419 208.47L197.156 206.282C201.636 205.145 201.724 200.594 201.724 196.394C201.724 194.206 201.724 191.494 201.636 189.306L200.845 154.566Z" fill="#E8E4DF"/>
<path d="M230.911 165.942V189.218C230.911 192.281 231.087 196.131 231.175 199.019C231.35 203.132 232.053 204.707 235.655 206.195L235.391 208.382C231.965 208.12 229.681 208.12 227.485 208.12C225.289 208.12 222.918 208.12 219.492 208.382L219.228 206.195C222.742 204.795 223.357 202.869 223.62 199.019C223.884 196.131 223.884 192.281 223.884 189.218V165.942C223.884 162.879 223.884 159.029 223.62 156.141C223.357 152.291 222.742 150.366 219.228 148.966L219.492 146.778C222.918 147.041 225.289 147.041 227.485 147.041C229.681 147.041 231.965 147.041 235.391 146.778L235.655 148.966C232.053 150.453 231.35 152.028 231.175 156.141C231.087 159.029 230.911 162.879 230.911 165.942Z" fill="#E8E4DF"/>
<path d="M296.811 208.995L294.703 209.695L251.396 157.629V189.306C251.396 192.369 251.396 196.219 251.66 199.107C252.011 203.219 252.802 204.795 256.403 206.282L256.14 208.47C253.417 208.295 251.045 208.207 249.025 208.207C246.916 208.207 244.808 208.207 242.085 208.47L241.822 206.282C245.423 204.795 246.126 203.219 246.477 199.107C246.741 196.219 246.741 192.369 246.741 189.306V165.942C246.741 162.879 246.741 159.554 246.477 156.666C246.126 152.553 244.984 150.453 241.382 148.966L241.646 146.778C244.369 146.953 247.795 147.041 251.923 147.041L291.804 194.731V165.942C291.804 162.879 291.804 159.029 291.54 156.141C291.189 152.028 290.398 150.453 286.797 148.966L287.06 146.778C289.784 146.953 292.155 147.041 294.176 147.041C296.284 147.041 298.392 147.041 301.115 146.778L301.379 148.966C297.777 150.453 297.074 152.028 296.723 156.141C296.46 159.029 296.46 162.879 296.46 165.942V194.644C296.46 198.844 296.547 204.444 296.811 208.995Z" fill="#E8E4DF"/>
<path d="M330.066 145.466H331.735L347.986 189.218C349.04 192.019 350.621 196.131 351.939 199.019C353.608 202.869 355.101 204.707 358 206.195L357.736 208.382C354.311 208.12 352.729 208.12 350.533 208.12C348.337 208.12 345.087 208.12 341.661 208.382L341.398 206.195C343.77 205.145 344.736 204.357 344.736 202.694C344.736 200.682 343.418 197.269 340.519 189.218L339.817 187.468H318.383L317.768 189.218C314.694 197.269 314.167 200.594 314.167 202.607C314.167 204.269 314.957 205.232 317.505 206.195L317.241 208.382C313.815 208.12 312.058 208.12 309.862 208.12C307.666 208.12 306.437 208.12 303.362 208.382L303.099 206.195C305.997 204.707 307.491 202.869 309.16 199.019C310.477 196.131 312.058 192.019 313.113 189.218L330.066 145.466ZM329.451 158.941L319.876 183.706H338.499L329.451 158.941Z" fill="#E8E4DF"/>
<path d="M144.474 254.848C142.717 254.848 141.663 253.798 141.136 251.785C140.696 250.035 140.082 249.335 138.588 249.335C134.547 249.335 129.628 255.81 127.169 263.686C125.675 268.411 125.324 271.737 125.324 274.624C125.324 278.912 127.257 280.312 129.453 280.312C132.878 280.312 135.777 277.862 140.872 271.299L142.717 272.437C138.588 280.75 132.878 286 127.871 286C123.216 286 119.702 282.5 119.702 276.374C119.702 261.148 131.385 244.697 141.224 244.697C145.001 244.697 147.812 247.497 147.812 251.173C147.812 253.185 146.406 254.848 144.474 254.848Z" fill="#E8E4DF"/>
<path d="M163.647 235.334L153.545 276.549C153.369 277.424 153.281 278.037 153.281 278.387C153.281 278.912 153.545 279.35 154.248 279.35C155.214 279.35 158.025 277.687 162.768 271.387L164.701 272.699C158.815 282.587 154.248 285.475 151.173 285.475C148.977 285.475 147.22 284.075 147.22 281.712C147.22 279.437 147.571 277.599 148.977 271.737L157.586 235.422C158.376 232.009 158.903 228.509 158.903 226.583C158.903 224.658 157.937 223.433 154.862 222.558L155.038 220.371C159.43 220.021 162.68 219.671 166.633 218.795L167.951 220.196C166.018 226.146 165.228 228.684 163.647 235.334Z" fill="#E8E4DF"/>
<path d="M190.516 267.799C182.786 282.587 178.745 285.475 174.441 285.475C170.752 285.475 168.468 282.412 168.468 279.262C168.468 277.162 169.258 274.449 170.839 270.336L176.11 256.686C177.076 254.148 177.515 252.748 177.515 251.698C177.515 250.91 177.164 250.21 176.374 250.21C174.88 250.21 173.299 251.96 169.258 256.948L167.501 255.46C172.421 248.11 175.759 244.697 179.36 244.697C181.468 244.697 183.313 246.622 183.313 249.423C183.313 251.435 182.874 253.185 180.678 258.961L175.407 272.962C174.529 275.237 174.265 276.374 174.265 277.599C174.265 279 174.968 279.875 176.637 279.875C179.799 279.875 187.529 272.874 195.875 249.248L197.104 245.747C197.631 245.485 198.334 245.31 199.037 245.31C200.354 245.31 201.76 246.097 202.551 247.672C200.003 254.673 199.037 256.948 197.456 262.373C194.82 271.474 194.03 275.324 193.854 276.899C193.766 277.774 193.766 278.474 193.766 278.912C193.766 279.35 194.118 279.875 194.645 279.875C195.611 279.875 197.192 279 201.76 273.049L203.605 274.449C198.334 282.937 194.82 285.475 191.746 285.475C189.286 285.475 188.057 283.725 188.057 281.187C188.057 279.175 188.057 276.724 190.516 267.799Z" fill="#E8E4DF"/>
<path d="M233.073 255.548C233.073 252.31 231.404 250.298 229.296 250.298C222.356 250.298 212.781 265.786 212.781 275.937C212.781 279.087 214.538 280.662 216.822 280.662C218.755 280.662 221.126 279.875 223.937 276.899C229.296 271.212 233.073 262.373 233.073 255.548ZM208.653 268.411L218.052 235.422C219.018 232.096 220.072 228.509 220.072 226.583C220.072 224.658 219.106 223.433 216.032 222.558L216.207 220.371C220.599 220.021 223.586 219.671 227.539 218.795L228.857 220.196C226.924 226.146 225.958 228.684 223.937 235.334L217.613 256.073C223.41 247.672 227.715 244.697 231.492 244.697C235.533 244.697 238.783 248.547 238.783 255.11C238.783 262.636 234.654 271.824 225.958 280.225C222.093 283.9 218.755 285.65 214.802 285.65C210.146 285.65 207.16 281.887 207.16 277.074C207.16 274.537 207.599 271.824 208.653 268.411Z" fill="#E8E4DF"/>
<path fill-rule="evenodd" clip-rule="evenodd" d="M128.983 7.66224C133.989 6.53422 141.577 5.27962 148.963 5.27962C151.253 5.27962 153.429 5.36653 155.475 5.5392C157.605 2.14717 160.33 0 164.033 0C171.792 0 175.615 9.34276 176.78 21.2738C177.945 9.34245 181.769 0.000103583 189.529 0.000103583C193.232 0.000103583 195.957 2.14758 198.088 5.54024C200.134 5.36756 202.311 5.28066 204.601 5.28066C211.988 5.28066 219.578 6.53546 224.585 7.66369L224.594 7.67342C225.723 12.6801 226.978 20.2684 226.978 27.6549C226.978 29.9451 226.891 32.1216 226.718 34.1674C230.111 36.298 232.259 39.0233 232.259 42.7261C232.259 50.4958 222.889 54.3191 210.933 55.4788C222.889 56.6379 232.259 60.4605 232.259 68.2296C232.259 71.9318 230.111 74.6566 226.719 76.7868C226.891 78.8323 226.978 81.0085 226.978 83.2983C226.978 90.6834 225.724 98.2706 224.596 103.276L224.586 103.286C219.58 104.414 211.992 105.669 204.606 105.669C202.316 105.669 200.14 105.582 198.094 105.409C195.964 108.801 193.239 110.948 189.536 110.948C181.777 110.948 177.954 101.606 176.789 89.6745C175.623 101.606 171.8 110.948 164.04 110.948C160.337 110.948 157.611 108.801 155.481 105.408C153.435 105.581 151.258 105.668 148.968 105.668C141.58 105.668 133.991 104.413 128.984 103.285L128.975 103.275C127.846 98.2683 126.591 90.6799 126.591 83.2934C126.591 81.0032 126.678 78.8267 126.851 76.7808C123.458 74.6502 121.31 71.925 121.31 68.2222C121.31 60.4524 130.68 56.6292 142.636 55.4695C130.68 54.3104 121.31 50.4878 121.31 42.7186C121.31 39.0165 123.458 36.2917 126.85 34.1614C126.677 32.116 126.59 29.9398 126.59 27.65C126.59 20.2649 127.845 12.6777 128.973 7.67208L128.983 7.66224ZM175.85 27.5309C175.85 37.3783 174.136 44.0879 170.389 49.0745C165.402 52.8212 158.692 54.5345 148.844 54.5345C144.056 54.5345 140.083 54.0655 136.92 53.199C145.76 45.5432 148.952 41.9851 151.705 30.3925C163.299 27.6392 166.858 24.4473 174.514 15.6081C175.381 18.7707 175.85 22.7434 175.85 27.5309ZM148.392 27.0791C148.58 26.2796 148.77 25.4756 148.963 24.6705C150.53 18.0855 152.192 11.466 154.77 6.74408C153.554 6.65437 152.255 6.60724 150.87 6.60724C143.804 6.60724 137.569 7.78042 132.817 11.5059C129.091 16.2571 127.918 22.4922 127.918 29.5571C127.918 30.9419 127.965 32.2408 128.055 33.4569C132.777 30.8792 139.397 29.2169 145.983 27.6501C146.788 27.4573 147.592 27.2676 148.392 27.0791ZM152.514 23.081C154.216 15.5776 156.2 6.83658 159.68 4.35255C167.601 -1.30224 172.652 8.19216 169.583 15.5023C166.514 22.8126 160.341 25.8457 151.546 27.2529C151.863 25.9452 152.183 24.5364 152.514 23.081ZM144.393 31.2006C136.889 32.9034 128.147 34.887 125.663 38.3661C120.008 46.2865 129.503 51.337 136.814 48.2684C144.125 45.1997 147.158 39.0273 148.566 30.2324C147.265 30.5489 145.864 30.8669 144.416 31.1952L144.393 31.2006ZM177.719 83.4174C177.719 73.57 179.433 66.8604 183.18 61.8738C188.167 58.1271 194.877 56.4137 204.725 56.4137C209.513 56.4137 213.486 56.8828 216.649 57.7492C207.809 65.405 204.617 68.9632 201.863 80.5558C190.27 83.309 186.711 86.5009 179.055 95.3402C178.188 92.1776 177.719 88.2049 177.719 83.4174ZM207.586 83.2982C206.781 83.4909 205.977 83.6807 205.177 83.8692L204.722 85.7907L204.606 86.2777C203.039 92.8628 201.377 99.4823 198.799 104.204C200.015 104.294 201.314 104.341 202.699 104.341C209.764 104.341 216 103.168 220.752 99.4424C224.477 94.6911 225.651 88.4561 225.651 81.3912C225.651 80.0063 225.604 78.7075 225.514 77.4914C220.792 80.0691 214.171 81.7314 207.586 83.2982ZM201.055 87.8673C199.352 95.3706 197.369 104.112 193.889 106.596C185.968 112.251 180.917 102.756 183.986 95.446C187.055 88.1357 193.228 85.1026 202.023 83.6954C201.705 85.003 201.386 86.4119 201.055 87.8673ZM209.176 79.7477C216.68 78.0449 225.421 76.0613 227.906 72.5822C233.561 64.6617 224.066 59.6112 216.755 62.6799C209.444 65.7485 206.411 71.9209 205.003 80.7157C205.609 80.5683 206.237 80.4206 206.881 80.2717C207.627 80.0992 208.395 79.9249 209.176 79.7477ZM170.398 61.8652C174.145 66.8527 175.859 73.5634 175.859 83.4125C175.859 88.201 175.39 92.1743 174.523 95.3374C166.865 86.4967 163.306 83.3042 151.711 80.5505C148.957 68.9559 145.764 65.3971 136.922 57.7399C140.086 56.8733 144.06 56.4042 148.848 56.4042C158.698 56.4042 165.41 58.1179 170.398 61.8652ZM148.968 86.2734C148.775 85.4681 148.585 84.664 148.396 83.8644C147.976 83.7652 147.553 83.6656 147.131 83.5654C146.75 83.4753 146.369 83.3847 145.987 83.2933C139.4 81.7262 132.779 80.0636 128.056 77.4855C127.967 78.7018 127.919 80.0009 127.919 81.386C127.919 88.4521 129.093 94.6882 132.819 99.4403C137.572 103.166 143.808 104.34 150.875 104.34C152.26 104.34 153.56 104.293 154.776 104.203C152.198 99.4802 150.535 92.8596 148.968 86.2734ZM159.686 106.595C156.206 104.11 154.222 95.3679 152.519 87.8633L152.515 87.8449L152.509 87.8186C152.182 86.3787 151.865 84.985 151.551 83.6905C160.348 85.098 166.522 88.1317 169.591 95.4432C172.661 102.755 167.609 112.251 159.686 106.595ZM144.397 79.7423L144.4 79.743C145.855 80.0731 147.263 80.3926 148.57 80.7105C147.163 71.9141 144.129 65.7405 136.817 62.6714C129.505 59.6022 120.008 64.6537 125.664 72.5756C128.149 76.0551 136.892 78.0392 144.397 79.7423ZM177.71 27.5358C177.71 37.3848 179.424 44.0956 183.171 49.0831C188.159 52.8304 194.871 54.5441 204.72 54.5441C209.509 54.5441 213.483 54.0749 216.646 53.2084C207.805 45.5512 204.612 41.9924 201.858 30.3978C190.263 27.6441 186.703 24.4516 179.046 15.6109C178.179 18.774 177.71 22.7473 177.71 27.5358ZM205.172 27.0838C204.984 26.2843 204.794 25.4802 204.601 24.6749C203.034 18.0887 201.371 11.4681 198.793 6.74532C200.009 6.65562 201.309 6.60849 202.694 6.60849C209.761 6.60849 215.997 7.78187 220.75 11.508C224.476 16.26 225.65 22.4961 225.65 29.5623C225.65 30.9474 225.602 32.2465 225.513 33.4628C220.79 30.8847 214.168 29.2221 207.582 27.655C206.776 27.4622 205.972 27.2723 205.172 27.0838ZM201.05 23.085C199.347 15.5804 197.363 6.83792 193.883 4.35349C185.96 -1.30245 180.908 8.19362 183.978 15.5051C187.047 22.8166 193.221 25.8503 202.018 27.2577C201.702 25.9555 201.383 24.5529 201.054 23.1038L201.05 23.085ZM209.172 31.2061C216.678 32.9092 225.42 34.8931 227.905 38.3728C233.561 46.2946 224.064 51.346 216.752 48.2769C209.44 45.2077 206.406 39.0342 204.999 30.2378C206.306 30.5558 207.714 30.8753 209.17 31.2055L209.172 31.2061ZM176.612 75.1141C178.29 58.6845 179.649 57.3246 196.08 55.6459C179.65 53.9691 178.29 52.6085 176.612 36.1788C174.934 52.6077 173.574 53.9681 157.144 55.6459C173.574 57.3248 174.934 58.6843 176.612 75.1141Z" fill="#E8E4DF"/>
</svg>
